<?xml version="1.0" encoding="UTF-8"?>
<svg id="Layer_1" data-name="Layer 1" xmlns="http://www.w3.org/2000/svg" viewBox="0 0 151.11 26.16">
  <defs>
    <style>
      .cls-1 {
        fill: #cd3c65;
      }

      .cls-2 {
        fill: #3e91be;
      }

      .cls-3 {
        fill: #6b6a6a;
      }
    </style>
  </defs>
  <g>
    <circle class="cls-1" cx="3.54" cy="7.63" r="3.54"/>
    <circle class="cls-1" cx="3.54" cy="15.82" r="3.54"/>
    <circle class="cls-1" cx="10.64" cy="11.72" r="3.54"/>
    <circle class="cls-1" cx="10.64" cy="19.91" r="3.54"/>
    <circle class="cls-2" cx="10.64" cy="3.54" r="3.54"/>
  </g>
  <path class="cls-3" d="M21.73,21.36V2.09h8.89c3.99,0,6.17,1.64,6.17,4.85,0,2.37-1.4,3.53-2.99,4.07v.05c2.02.35,3.75,1.75,3.75,4.63,0,3.93-2.59,5.66-6.58,5.66h-9.24ZM29.79,9.96c1.75,0,2.75-.57,2.75-2.21s-1.08-2.21-2.67-2.21h-3.99v4.42h3.91ZM30,17.91c2.34,0,3.29-.81,3.29-2.61s-1.11-2.61-3.13-2.61h-4.29v5.23h4.12Z"/>
  <path class="cls-3" d="M53.16,15.46h-10.16c.03,2.05,1.37,3.5,3.4,3.5,1.86,0,2.61-1.02,2.88-1.81h3.75c-.75,2.75-2.94,4.64-6.74,4.64-4.42,0-7.01-3.05-7.01-7.33s2.53-7.33,7.01-7.33,6.87,2.78,6.87,7.55v.78ZM49.41,13.01c0-1.91-1.21-3.1-3.15-3.1-1.83,0-3.1,1.16-3.26,3.1h6.41Z"/>
  <path class="cls-3" d="M63.83,7.48v3.31c-.35-.05-.59-.08-.89-.08-2.13,0-3.88,1.46-3.88,3.96v6.68h-3.69V7.59h3.69v2.37h.05c.7-1.54,1.86-2.56,3.5-2.56.4,0,.75,0,1.21.08Z"/>
  <path class="cls-3" d="M73.86,7.48v3.31c-.35-.05-.59-.08-.89-.08-2.13,0-3.88,1.46-3.88,3.96v6.68h-3.69V7.59h3.69v2.37h.05c.7-1.54,1.86-2.56,3.5-2.56.4,0,.75,0,1.21.08Z"/>
  <path class="cls-3" d="M76.44,25.91v-2.88c.46.05.78.08,1.24.08.92,0,2.13-.22,2.56-1.91l-5.5-13.61h3.85l3.53,9.59h.05l3.26-9.59h3.72l-5.2,13.9c-1.21,3.23-2.56,4.66-5.25,4.66-.81,0-1.43-.08-2.26-.24Z"/>
  <path class="cls-3" d="M90.96,21.36V2.09h8.89c3.99,0,6.17,1.64,6.17,4.85,0,2.37-1.4,3.53-2.99,4.07v.05c2.02.35,3.75,1.75,3.75,4.63,0,3.93-2.59,5.66-6.58,5.66h-9.24ZM99.02,9.96c1.75,0,2.75-.57,2.75-2.21s-1.08-2.21-2.67-2.21h-3.99v4.42h3.91ZM99.24,17.91c2.34,0,3.29-.81,3.29-2.61s-1.11-2.61-3.13-2.61h-4.29v5.23h4.12Z"/>
  <path class="cls-3" d="M108.45,17.77c0-2.94,2.34-3.99,5.47-4.61,1.72-.35,3.56-.59,3.56-1.94,0-.86-.59-1.48-2.13-1.48-1.86,0-2.61.7-2.75,2.24h-3.56c.13-2.64,1.99-4.85,6.47-4.85,3.42,0,5.55,1.4,5.55,5.36v5.71c0,.83.11,1.21.57,1.21.11,0,.19,0,.35-.03v1.89c-.73.13-1.46.22-1.99.22-1.56,0-2.24-.59-2.42-1.91h-.05c-.94,1.29-2.53,2.18-4.61,2.18-2.72,0-4.45-1.59-4.45-3.99ZM117.48,15.86v-1.46c-.51.27-1.35.49-2.59.78-1.91.4-2.64,1.08-2.64,2.24s.7,1.7,1.99,1.7c1.97,0,3.23-1.38,3.23-3.26Z"/>
  <path class="cls-3" d="M123.25,16.78h3.53c.13,1.46,1.08,2.34,3.04,2.34,1.67,0,2.24-.65,2.24-1.51,0-1.4-1.54-1.56-3.45-1.99-2.42-.57-5.01-1.43-5.01-4.26,0-2.51,2.08-4.2,5.74-4.2,4.18,0,5.93,2.16,6.09,4.55h-3.53c-.16-1.08-.73-1.89-2.48-1.89-1.4,0-2.02.51-2.02,1.32,0,1.1,1.08,1.19,3.1,1.67,2.67.62,5.36,1.4,5.36,4.55,0,2.8-2.13,4.39-5.98,4.39-4.58,0-6.52-2.26-6.63-4.99Z"/>
  <path class="cls-3" d="M151.11,15.46h-10.16c.03,2.05,1.37,3.5,3.4,3.5,1.86,0,2.61-1.02,2.88-1.81h3.75c-.75,2.75-2.94,4.64-6.74,4.64-4.42,0-7.01-3.05-7.01-7.33s2.53-7.33,7.01-7.33,6.87,2.78,6.87,7.55v.78ZM147.36,13.01c0-1.91-1.21-3.1-3.15-3.1-1.83,0-3.1,1.16-3.26,3.1h6.41Z"/>
</svg>